<svg width="23" height="26" viewBox="0 0 23 26" fill="none" xmlns="http://www.w3.org/2000/svg">
<path d="M4.5 8.25C4.5 7.83579 4.83579 7.5 5.25 7.5H12.75C13.1641 7.5 13.5 7.83579 13.5 8.25C13.5 8.66421 13.1641 9 12.75 9H5.25C4.83579 9 4.5 8.66421 4.5 8.25ZM5.25 12C4.83579 12 4.5 12.3358 4.5 12.75C4.5 13.1642 4.83579 13.5 5.25 13.5H12.75C13.1641 13.5 13.5 13.1642 13.5 12.75C13.5 12.3358 13.1641 12 12.75 12H5.25ZM4.5 17.25C4.5 16.8358 4.83579 16.5 5.25 16.5H8.25C8.66421 16.5 9 16.8358 9 17.25C9 17.6642 8.66421 18 8.25 18H5.25C4.83579 18 4.5 17.6642 4.5 17.25ZM3 0.75C3 0.33579 3.33579 0 3.75 0C4.16421 0 4.5 0.33579 4.5 0.75V1.5H8.25V0.75C8.25 0.33579 8.58579 0 9 0C9.41415 0 9.75 0.33579 9.75 0.75V1.5H13.5V0.75C13.5 0.33579 13.8358 0 14.25 0C14.6641 0 15 0.33579 15 0.75V1.5H15.75C16.9926 1.5 18 2.50735 18 3.75V10.8474C17.5107 11.0571 17.0524 11.3616 16.653 11.761L16.5 11.914V3.75C16.5 3.33579 16.1641 3 15.75 3H2.25C1.83579 3 1.5 3.33579 1.5 3.75V21.75C1.5 22.1642 1.83579 22.5 2.25 22.5H7.83071L7.58574 23.4798C7.54192 23.6551 7.51522 23.8288 7.50429 24H2.25C1.00735 24 0 22.9926 0 21.75V3.75C0 2.50735 1.00735 1.5 2.25 1.5H3V0.75ZM17.7138 12.8217L10.4697 20.0658C10.0473 20.4882 9.7476 21.0174 9.6027 21.5968L9.0411 23.8437C8.79676 24.8208 9.6819 25.7058 10.659 25.4616L12.9058 24.8998C13.4853 24.7549 14.0145 24.4554 14.4369 24.033L21.681 16.7889C22.7764 15.6933 22.7764 13.9172 21.681 12.8217C20.5855 11.7261 18.8092 11.7261 17.7138 12.8217Z" fill="black"/>
</svg>
